<svg xmlns="http://www.w3.org/2000/svg" xmlns:xlink="http://www.w3.org/1999/xlink" viewBox="0 0 500 500" width="500" height="500" preserveAspectRatio="xMidYMid meet" style="width: 100%; height: 100%; transform: translate3d(0px, 0px, 0px); content-visibility: visible;"><defs><clipPath id="__lottie_element_67"><rect width="500" height="500" x="0" y="0"/></clipPath><g id="__lottie_element_75"><g transform="matrix(0.9998041391372681,0.019790692254900932,-0.019790692254900932,0.9998041391372681,18.00225830078125,-5.466644287109375)" opacity="1" style="display: block;"><g opacity="1" transform="matrix(1,0,0,1,250,250.2830047607422)"><path fill="rgb(255,0,0)" fill-opacity="1" d=" M130.78399658203125,2.4649999141693115 C130.78399658203125,2.4649999141693115 157.12100219726562,20.511999130249023 157.12100219726562,20.511999130249023 C158.06399536132812,21.158000946044922 158.5679931640625,22.285999298095703 158.4029998779297,23.41699981689453 C155.77099609375,41.49300003051758 150.0919952392578,58.584999084472656 141.94400024414062,74.16200256347656 C141.41299438476562,75.1760025024414 140.34300231933594,75.79399871826172 139.19900512695312,75.76200103759766 C139.19900512695312,75.76200103759766 107.24800109863281,74.86900329589844 107.24800109863281,74.86900329589844 C105.13999938964844,74.80999755859375 103.63200378417969,76.88600158691406 104.33799743652344,78.87300109863281 C104.33799743652344,78.87300109863281 115.03399658203125,108.9530029296875 115.03399658203125,108.9530029296875 C115.41699981689453,110.03099822998047 115.16100311279297,111.23999786376953 114.36100006103516,112.05799865722656 C101.91799926757812,124.7770004272461 87.36299896240234,135.41200256347656 71.27200317382812,143.41799926757812 C70.24600219726562,143.92799377441406 69.01499938964844,143.7989959716797 68.10700225830078,143.10000610351562 C68.10700225830078,143.10000610351562 42.77199935913086,123.60099792480469 42.77199935913086,123.60099792480469 C41.10200119018555,122.31500244140625 38.6609992980957,123.10800170898438 38.064998626708984,125.12999725341797 C38.064998626708984,125.12999725341797 29.02400016784668,155.79100036621094 29.02400016784668,155.79100036621094 C28.700000762939453,156.88900756835938 27.783000946044922,157.71600341796875 26.655000686645508,157.90699768066406 C17.988000869750977,159.3719940185547 9.07699966430664,160.11900329589844 0,160.11900329589844 C-9.07699966430664,160.11900329589844 -17.988000869750977,159.3719940185547 -26.655000686645508,157.90699768066406 C-27.784000396728516,157.71600341796875 -28.700000762939453,156.88900756835938 -29.02400016784668,155.79100036621094 C-29.02400016784668,155.79100036621094 -38.064998626708984,125.12999725341797 -38.064998626708984,125.12999725341797 C-38.6609992980957,123.10800170898438 -41.10200119018555,122.31500244140625 -42.77199935913086,123.60099792480469 C-42.77199935913086,123.60099792480469 -68.10700225830078,143.10000610351562 -68.10700225830078,143.10000610351562 C-69.01499938964844,143.7989959716797 -70.24600219726562,143.92799377441406 -71.27200317382812,143.41799926757812 C-87.36299896240234,135.41200256347656 -101.91799926757812,124.7770004272461 -114.36100006103516,112.05799865722656 C-115.16100311279297,111.23999786376953 -115.41699981689453,110.03099822998047 -115.03399658203125,108.9530029296875 C-115.03399658203125,108.9530029296875 -104.33799743652344,78.87300109863281 -104.33799743652344,78.87300109863281 C-103.63200378417969,76.88600158691406 -105.13999938964844,74.80999755859375 -107.24800109863281,74.86900329589844 C-107.24800109863281,74.86900329589844 -139.19900512695312,75.76200103759766 -139.19900512695312,75.76200103759766 C-140.34300231933594,75.79399871826172 -141.41299438476562,75.1760025024414 -141.94400024414062,74.16200256347656 C-150.0919952392578,58.584999084472656 -155.77099609375,41.49300003051758 -158.4029998779297,23.41699981689453 C-158.5679931640625,22.285999298095703 -158.06399536132812,21.158000946044922 -157.12100219726562,20.511999130249023 C-157.12100219726562,20.511999130249023 -130.78399658203125,2.4649999141693115 -130.78399658203125,2.4649999141693115 C-129.0449981689453,1.2730000019073486 -129.0449981689453,-1.2920000553131104 -130.78399658203125,-2.4839999675750732 C-130.78399658203125,-2.4839999675750732 -157.12100219726562,-20.5310001373291 -157.12100219726562,-20.5310001373291 C-158.06399536132812,-21.177000045776367 -158.5679931640625,-22.30500030517578 -158.4029998779297,-23.43600082397461 C-155.77200317382812,-41.51100158691406 -150.11000061035156,-58.58599853515625 -141.96299743652344,-74.16200256347656 C-141.4320068359375,-75.1760025024414 -140.36199951171875,-75.79399871826172 -139.21800231933594,-75.76200103759766 C-139.21800231933594,-75.76200103759766 -107.2490005493164,-74.86900329589844 -107.2490005493164,-74.86900329589844 C-105.14099884033203,-74.80999755859375 -103.63200378417969,-76.88700103759766 -104.33899688720703,-78.8740005493164 C-104.33899688720703,-78.8740005493164 -115.0510025024414,-108.96900177001953 -115.0510025024414,-108.96900177001953 C-115.43499755859375,-110.04900360107422 -115.1780014038086,-111.25900268554688 -114.3759994506836,-112.0770034790039 C-101.91600036621094,-124.77799987792969 -87.34500122070312,-135.41200256347656 -71.25499725341797,-143.4340057373047 C-70.22799682617188,-143.9459991455078 -68.99500274658203,-143.81700134277344 -68.08599853515625,-143.11700439453125 C-68.08599853515625,-143.11700439453125 -42.77399826049805,-123.62200164794922 -42.77399826049805,-123.62200164794922 C-41.10300064086914,-122.33499908447266 -38.6619987487793,-123.12899780273438 -38.066001892089844,-125.1520004272461 C-38.066001892089844,-125.1520004272461 -29.04400062561035,-155.78700256347656 -29.04400062561035,-155.78700256347656 C-28.719999313354492,-156.88699340820312 -27.801000595092773,-157.71499633789062 -26.670000076293945,-157.9040069580078 C-18.003999710083008,-159.35499572753906 -9.093000411987305,-160.11900329589844 0,-160.11900329589844 C9.093000411987305,-160.11900329589844 18.003999710083008,-159.35499572753906 26.670000076293945,-157.9040069580078 C27.801000595092773,-157.71499633789062 28.719999313354492,-156.88699340820312 29.04400062561035,-155.78700256347656 C29.04400062561035,-155.78700256347656 38.066001892089844,-125.1520004272461 38.066001892089844,-125.1520004272461 C38.6619987487793,-123.12899780273438 41.10300064086914,-122.33499908447266 42.77399826049805,-123.62200164794922 C42.77399826049805,-123.62200164794922 68.08599853515625,-143.11700439453125 68.08599853515625,-143.11700439453125 C68.99500274658203,-143.81700134277344 70.22799682617188,-143.9459991455078 71.25499725341797,-143.4340057373047 C87.34500122070312,-135.41200256347656 101.91600036621094,-124.77799987792969 114.3759994506836,-112.0770034790039 C115.1780014038086,-111.25900268554688 115.43499755859375,-110.04900360107422 115.0510025024414,-108.96900177001953 C115.0510025024414,-108.96900177001953 104.33899688720703,-78.8740005493164 104.33899688720703,-78.8740005493164 C103.63200378417969,-76.88700103759766 105.14099884033203,-74.80999755859375 107.2490005493164,-74.86900329589844 C107.2490005493164,-74.86900329589844 139.21800231933594,-75.76200103759766 139.21800231933594,-75.76200103759766 C140.36199951171875,-75.79399871826172 141.4320068359375,-75.1760025024414 141.96299743652344,-74.16200256347656 C150.11000061035156,-58.58599853515625 155.77200317382812,-41.51100158691406 158.4029998779297,-23.43600082397461 C158.5679931640625,-22.30500030517578 158.06399536132812,-21.177000045776367 157.12100219726562,-20.5310001373291 C157.12100219726562,-20.5310001373291 130.78399658203125,-2.4839999675750732 130.78399658203125,-2.4839999675750732 C129.0449981689453,-1.2920000553131104 129.0449981689453,1.2730000019073486 130.78399658203125,2.4649999141693115z"/></g><g opacity="1" transform="matrix(1,0,0,1,250,250)"><path fill="rgb(255,0,0)" fill-opacity="1" d=" M-91.16200256347656,0 C-91.16200256347656,50.347999572753906 -50.347999572753906,91.16200256347656 0,91.16200256347656 C50.347999572753906,91.16200256347656 91.16200256347656,50.347999572753906 91.16200256347656,0 C91.16200256347656,-50.347999572753906 50.347999572753906,-91.16200256347656 0,-91.16200256347656 C-50.347999572753906,-91.16200256347656 -91.16200256347656,-50.347999572753906 -91.16200256347656,0z"/></g></g></g><filter id="__lottie_element_89" filterUnits="objectBoundingBox" x="0%" y="0%" width="100%" height="100%"><feComponentTransfer in="SourceGraphic"><feFuncA type="table" tableValues="1.0 0.0"/></feComponentTransfer></filter><mask id="__lottie_element_75_2" mask-type="alpha"><g filter="url(#__lottie_element_89)"><rect width="500" height="500" x="0" y="0" fill="#ffffff" opacity="0"/><use xmlns:ns1="http://www.w3.org/1999/xlink" ns1:href="#__lottie_element_75"/></g></mask></defs><g clip-path="url(#__lottie_element_67)"><g transform="matrix(0.9998041391372681,0.019790692254900932,-0.019790692254900932,0.9998041391372681,5.00225830078125,-5.466644287109375)" opacity="1" style="display: block;"><g opacity="1" transform="matrix(1,0,0,1,250,250.2830047607422)"><path fill="rgb(75,179,253)" fill-opacity="1" d=" M130.78399658203125,2.4649999141693115 C130.78399658203125,2.4649999141693115 157.12100219726562,20.511999130249023 157.12100219726562,20.511999130249023 C158.06399536132812,21.158000946044922 158.5679931640625,22.285999298095703 158.4029998779297,23.41699981689453 C155.77099609375,41.49300003051758 150.0919952392578,58.584999084472656 141.94400024414062,74.16200256347656 C141.41299438476562,75.1760025024414 140.34300231933594,75.79399871826172 139.19900512695312,75.76200103759766 C139.19900512695312,75.76200103759766 107.24800109863281,74.86900329589844 107.24800109863281,74.86900329589844 C105.13999938964844,74.80999755859375 103.63200378417969,76.88600158691406 104.33799743652344,78.87300109863281 C104.33799743652344,78.87300109863281 115.03399658203125,108.9530029296875 115.03399658203125,108.9530029296875 C115.41699981689453,110.03099822998047 115.16100311279297,111.23999786376953 114.36100006103516,112.05799865722656 C101.91799926757812,124.7770004272461 87.36299896240234,135.41200256347656 71.27200317382812,143.41799926757812 C70.24600219726562,143.92799377441406 69.01499938964844,143.7989959716797 68.10700225830078,143.10000610351562 C68.10700225830078,143.10000610351562 42.77199935913086,123.60099792480469 42.77199935913086,123.60099792480469 C41.10200119018555,122.31500244140625 38.6609992980957,123.10800170898438 38.064998626708984,125.12999725341797 C38.064998626708984,125.12999725341797 29.02400016784668,155.79100036621094 29.02400016784668,155.79100036621094 C28.700000762939453,156.88900756835938 27.783000946044922,157.71600341796875 26.655000686645508,157.90699768066406 C17.988000869750977,159.3719940185547 9.07699966430664,160.11900329589844 0,160.11900329589844 C-9.07699966430664,160.11900329589844 -17.988000869750977,159.3719940185547 -26.655000686645508,157.90699768066406 C-27.784000396728516,157.71600341796875 -28.700000762939453,156.88900756835938 -29.02400016784668,155.79100036621094 C-29.02400016784668,155.79100036621094 -38.064998626708984,125.12999725341797 -38.064998626708984,125.12999725341797 C-38.6609992980957,123.10800170898438 -41.10200119018555,122.31500244140625 -42.77199935913086,123.60099792480469 C-42.77199935913086,123.60099792480469 -68.10700225830078,143.10000610351562 -68.10700225830078,143.10000610351562 C-69.01499938964844,143.7989959716797 -70.24600219726562,143.92799377441406 -71.27200317382812,143.41799926757812 C-87.36299896240234,135.41200256347656 -101.91799926757812,124.7770004272461 -114.36100006103516,112.05799865722656 C-115.16100311279297,111.23999786376953 -115.41699981689453,110.03099822998047 -115.03399658203125,108.9530029296875 C-115.03399658203125,108.9530029296875 -104.33799743652344,78.87300109863281 -104.33799743652344,78.87300109863281 C-103.63200378417969,76.88600158691406 -105.13999938964844,74.80999755859375 -107.24800109863281,74.86900329589844 C-107.24800109863281,74.86900329589844 -139.19900512695312,75.76200103759766 -139.19900512695312,75.76200103759766 C-140.34300231933594,75.79399871826172 -141.41299438476562,75.1760025024414 -141.94400024414062,74.16200256347656 C-150.0919952392578,58.584999084472656 -155.77099609375,41.49300003051758 -158.4029998779297,23.41699981689453 C-158.5679931640625,22.285999298095703 -158.06399536132812,21.158000946044922 -157.12100219726562,20.511999130249023 C-157.12100219726562,20.511999130249023 -130.78399658203125,2.4649999141693115 -130.78399658203125,2.4649999141693115 C-129.0449981689453,1.2730000019073486 -129.0449981689453,-1.2920000553131104 -130.78399658203125,-2.4839999675750732 C-130.78399658203125,-2.4839999675750732 -157.12100219726562,-20.5310001373291 -157.12100219726562,-20.5310001373291 C-158.06399536132812,-21.177000045776367 -158.5679931640625,-22.30500030517578 -158.4029998779297,-23.43600082397461 C-155.77200317382812,-41.51100158691406 -150.11000061035156,-58.58599853515625 -141.96299743652344,-74.16200256347656 C-141.4320068359375,-75.1760025024414 -140.36199951171875,-75.79399871826172 -139.21800231933594,-75.76200103759766 C-139.21800231933594,-75.76200103759766 -107.2490005493164,-74.86900329589844 -107.2490005493164,-74.86900329589844 C-105.14099884033203,-74.80999755859375 -103.63200378417969,-76.88700103759766 -104.33899688720703,-78.8740005493164 C-104.33899688720703,-78.8740005493164 -115.0510025024414,-108.96900177001953 -115.0510025024414,-108.96900177001953 C-115.43499755859375,-110.04900360107422 -115.1780014038086,-111.25900268554688 -114.3759994506836,-112.0770034790039 C-101.91600036621094,-124.77799987792969 -87.34500122070312,-135.41200256347656 -71.25499725341797,-143.4340057373047 C-70.22799682617188,-143.9459991455078 -68.99500274658203,-143.81700134277344 -68.08599853515625,-143.11700439453125 C-68.08599853515625,-143.11700439453125 -42.77399826049805,-123.62200164794922 -42.77399826049805,-123.62200164794922 C-41.10300064086914,-122.33499908447266 -38.6619987487793,-123.12899780273438 -38.066001892089844,-125.1520004272461 C-38.066001892089844,-125.1520004272461 -29.04400062561035,-155.78700256347656 -29.04400062561035,-155.78700256347656 C-28.719999313354492,-156.88699340820312 -27.801000595092773,-157.71499633789062 -26.670000076293945,-157.9040069580078 C-18.003999710083008,-159.35499572753906 -9.093000411987305,-160.11900329589844 0,-160.11900329589844 C9.093000411987305,-160.11900329589844 18.003999710083008,-159.35499572753906 26.670000076293945,-157.9040069580078 C27.801000595092773,-157.71499633789062 28.719999313354492,-156.88699340820312 29.04400062561035,-155.78700256347656 C29.04400062561035,-155.78700256347656 38.066001892089844,-125.1520004272461 38.066001892089844,-125.1520004272461 C38.6619987487793,-123.12899780273438 41.10300064086914,-122.33499908447266 42.77399826049805,-123.62200164794922 C42.77399826049805,-123.62200164794922 68.08599853515625,-143.11700439453125 68.08599853515625,-143.11700439453125 C68.99500274658203,-143.81700134277344 70.22799682617188,-143.9459991455078 71.25499725341797,-143.4340057373047 C87.34500122070312,-135.41200256347656 101.91600036621094,-124.77799987792969 114.3759994506836,-112.0770034790039 C115.1780014038086,-111.25900268554688 115.43499755859375,-110.04900360107422 115.0510025024414,-108.96900177001953 C115.0510025024414,-108.96900177001953 104.33899688720703,-78.8740005493164 104.33899688720703,-78.8740005493164 C103.63200378417969,-76.88700103759766 105.14099884033203,-74.80999755859375 107.2490005493164,-74.86900329589844 C107.2490005493164,-74.86900329589844 139.21800231933594,-75.76200103759766 139.21800231933594,-75.76200103759766 C140.36199951171875,-75.79399871826172 141.4320068359375,-75.1760025024414 141.96299743652344,-74.16200256347656 C150.11000061035156,-58.58599853515625 155.77200317382812,-41.51100158691406 158.4029998779297,-23.43600082397461 C158.5679931640625,-22.30500030517578 158.06399536132812,-21.177000045776367 157.12100219726562,-20.5310001373291 C157.12100219726562,-20.5310001373291 130.78399658203125,-2.4839999675750732 130.78399658203125,-2.4839999675750732 C129.0449981689453,-1.2920000553131104 129.0449981689453,1.2730000019073486 130.78399658203125,2.4649999141693115z"/></g><g opacity="1" transform="matrix(1,0,0,1,250,250)"><path fill="rgb(235,230,239)" fill-opacity="1" d=" M-91.16200256347656,0 C-91.16200256347656,50.347999572753906 -50.347999572753906,91.16200256347656 0,91.16200256347656 C50.347999572753906,91.16200256347656 91.16200256347656,50.347999572753906 91.16200256347656,0 C91.16200256347656,-50.347999572753906 50.347999572753906,-91.16200256347656 0,-91.16200256347656 C-50.347999572753906,-91.16200256347656 -91.16200256347656,-50.347999572753906 -91.16200256347656,0z"/></g></g><g mask="url(#__lottie_element_75_2)" style="mix-blend-mode: multiply; display: block;"><g transform="matrix(0.9998041391372681,0.019790692254900932,-0.019790692254900932,0.9998041391372681,5.00225830078125,-5.466644287109375)" opacity="0.5"><g opacity="1" transform="matrix(1,0,0,1,250,250.2830047607422)"><path fill="rgb(75,179,253)" fill-opacity="1" d=" M130.78399658203125,2.4649999141693115 C130.78399658203125,2.4649999141693115 157.12100219726562,20.511999130249023 157.12100219726562,20.511999130249023 C158.06399536132812,21.158000946044922 158.5679931640625,22.285999298095703 158.4029998779297,23.41699981689453 C155.77099609375,41.49300003051758 150.0919952392578,58.584999084472656 141.94400024414062,74.16200256347656 C141.41299438476562,75.1760025024414 140.34300231933594,75.79399871826172 139.19900512695312,75.76200103759766 C139.19900512695312,75.76200103759766 107.24800109863281,74.86900329589844 107.24800109863281,74.86900329589844 C105.13999938964844,74.80999755859375 103.63200378417969,76.88600158691406 104.33799743652344,78.87300109863281 C104.33799743652344,78.87300109863281 115.03399658203125,108.9530029296875 115.03399658203125,108.9530029296875 C115.41699981689453,110.03099822998047 115.16100311279297,111.23999786376953 114.36100006103516,112.05799865722656 C101.91799926757812,124.7770004272461 87.36299896240234,135.41200256347656 71.27200317382812,143.41799926757812 C70.24600219726562,143.92799377441406 69.01499938964844,143.7989959716797 68.10700225830078,143.10000610351562 C68.10700225830078,143.10000610351562 42.77199935913086,123.60099792480469 42.77199935913086,123.60099792480469 C41.10200119018555,122.31500244140625 38.6609992980957,123.10800170898438 38.064998626708984,125.12999725341797 C38.064998626708984,125.12999725341797 29.02400016784668,155.79100036621094 29.02400016784668,155.79100036621094 C28.700000762939453,156.88900756835938 27.783000946044922,157.71600341796875 26.655000686645508,157.90699768066406 C17.988000869750977,159.3719940185547 9.07699966430664,160.11900329589844 0,160.11900329589844 C-9.07699966430664,160.11900329589844 -17.988000869750977,159.3719940185547 -26.655000686645508,157.90699768066406 C-27.784000396728516,157.71600341796875 -28.700000762939453,156.88900756835938 -29.02400016784668,155.79100036621094 C-29.02400016784668,155.79100036621094 -38.064998626708984,125.12999725341797 -38.064998626708984,125.12999725341797 C-38.6609992980957,123.10800170898438 -41.10200119018555,122.31500244140625 -42.77199935913086,123.60099792480469 C-42.77199935913086,123.60099792480469 -68.10700225830078,143.10000610351562 -68.10700225830078,143.10000610351562 C-69.01499938964844,143.7989959716797 -70.24600219726562,143.92799377441406 -71.27200317382812,143.41799926757812 C-87.36299896240234,135.41200256347656 -101.91799926757812,124.7770004272461 -114.36100006103516,112.05799865722656 C-115.16100311279297,111.23999786376953 -115.41699981689453,110.03099822998047 -115.03399658203125,108.9530029296875 C-115.03399658203125,108.9530029296875 -104.33799743652344,78.87300109863281 -104.33799743652344,78.87300109863281 C-103.63200378417969,76.88600158691406 -105.13999938964844,74.80999755859375 -107.24800109863281,74.86900329589844 C-107.24800109863281,74.86900329589844 -139.19900512695312,75.76200103759766 -139.19900512695312,75.76200103759766 C-140.34300231933594,75.79399871826172 -141.41299438476562,75.1760025024414 -141.94400024414062,74.16200256347656 C-150.0919952392578,58.584999084472656 -155.77099609375,41.49300003051758 -158.4029998779297,23.41699981689453 C-158.5679931640625,22.285999298095703 -158.06399536132812,21.158000946044922 -157.12100219726562,20.511999130249023 C-157.12100219726562,20.511999130249023 -130.78399658203125,2.4649999141693115 -130.78399658203125,2.4649999141693115 C-129.0449981689453,1.2730000019073486 -129.0449981689453,-1.2920000553131104 -130.78399658203125,-2.4839999675750732 C-130.78399658203125,-2.4839999675750732 -157.12100219726562,-20.5310001373291 -157.12100219726562,-20.5310001373291 C-158.06399536132812,-21.177000045776367 -158.5679931640625,-22.30500030517578 -158.4029998779297,-23.43600082397461 C-155.77200317382812,-41.51100158691406 -150.11000061035156,-58.58599853515625 -141.96299743652344,-74.16200256347656 C-141.4320068359375,-75.1760025024414 -140.36199951171875,-75.79399871826172 -139.21800231933594,-75.76200103759766 C-139.21800231933594,-75.76200103759766 -107.2490005493164,-74.86900329589844 -107.2490005493164,-74.86900329589844 C-105.14099884033203,-74.80999755859375 -103.63200378417969,-76.88700103759766 -104.33899688720703,-78.8740005493164 C-104.33899688720703,-78.8740005493164 -115.0510025024414,-108.96900177001953 -115.0510025024414,-108.96900177001953 C-115.43499755859375,-110.04900360107422 -115.1780014038086,-111.25900268554688 -114.3759994506836,-112.0770034790039 C-101.91600036621094,-124.77799987792969 -87.34500122070312,-135.41200256347656 -71.25499725341797,-143.4340057373047 C-70.22799682617188,-143.9459991455078 -68.99500274658203,-143.81700134277344 -68.08599853515625,-143.11700439453125 C-68.08599853515625,-143.11700439453125 -42.77399826049805,-123.62200164794922 -42.77399826049805,-123.62200164794922 C-41.10300064086914,-122.33499908447266 -38.6619987487793,-123.12899780273438 -38.066001892089844,-125.1520004272461 C-38.066001892089844,-125.1520004272461 -29.04400062561035,-155.78700256347656 -29.04400062561035,-155.78700256347656 C-28.719999313354492,-156.88699340820312 -27.801000595092773,-157.71499633789062 -26.670000076293945,-157.9040069580078 C-18.003999710083008,-159.35499572753906 -9.093000411987305,-160.11900329589844 0,-160.11900329589844 C9.093000411987305,-160.11900329589844 18.003999710083008,-159.35499572753906 26.670000076293945,-157.9040069580078 C27.801000595092773,-157.71499633789062 28.719999313354492,-156.88699340820312 29.04400062561035,-155.78700256347656 C29.04400062561035,-155.78700256347656 38.066001892089844,-125.1520004272461 38.066001892089844,-125.1520004272461 C38.6619987487793,-123.12899780273438 41.10300064086914,-122.33499908447266 42.77399826049805,-123.62200164794922 C42.77399826049805,-123.62200164794922 68.08599853515625,-143.11700439453125 68.08599853515625,-143.11700439453125 C68.99500274658203,-143.81700134277344 70.22799682617188,-143.9459991455078 71.25499725341797,-143.4340057373047 C87.34500122070312,-135.41200256347656 101.91600036621094,-124.77799987792969 114.3759994506836,-112.0770034790039 C115.1780014038086,-111.25900268554688 115.43499755859375,-110.04900360107422 115.0510025024414,-108.96900177001953 C115.0510025024414,-108.96900177001953 104.33899688720703,-78.8740005493164 104.33899688720703,-78.8740005493164 C103.63200378417969,-76.88700103759766 105.14099884033203,-74.80999755859375 107.2490005493164,-74.86900329589844 C107.2490005493164,-74.86900329589844 139.21800231933594,-75.76200103759766 139.21800231933594,-75.76200103759766 C140.36199951171875,-75.79399871826172 141.4320068359375,-75.1760025024414 141.96299743652344,-74.16200256347656 C150.11000061035156,-58.58599853515625 155.77200317382812,-41.51100158691406 158.4029998779297,-23.43600082397461 C158.5679931640625,-22.30500030517578 158.06399536132812,-21.177000045776367 157.12100219726562,-20.5310001373291 C157.12100219726562,-20.5310001373291 130.78399658203125,-2.4839999675750732 130.78399658203125,-2.4839999675750732 C129.0449981689453,-1.2920000553131104 129.0449981689453,1.2730000019073486 130.78399658203125,2.4649999141693115z"/></g><g opacity="1" transform="matrix(1,0,0,1,250,250)"><path fill="rgb(235,230,239)" fill-opacity="1" d=" M-91.16200256347656,0 C-91.16200256347656,50.347999572753906 -50.347999572753906,91.16200256347656 0,91.16200256347656 C50.347999572753906,91.16200256347656 91.16200256347656,50.347999572753906 91.16200256347656,0 C91.16200256347656,-50.347999572753906 50.347999572753906,-91.16200256347656 0,-91.16200256347656 C-50.347999572753906,-91.16200256347656 -91.16200256347656,-50.347999572753906 -91.16200256347656,0z"/></g></g></g><g transform="matrix(1,0,0,1,0,0)" opacity="1" style="display: block;"><g opacity="1" transform="matrix(1,0,0,1,0,0)"><g opacity="1" transform="matrix(1,0,0,1,266.6029968261719,239.65899658203125)"><path stroke-linecap="round" stroke-linejoin="round" fill-opacity="0" stroke="rgb(75,179,253)" stroke-opacity="1" stroke-width="7" d=" M-14.37399959564209,-12.128000259399414 C-14.37399959564209,-12.128000259399414 0.9779999852180481,-12.128000259399414 0.9779999852180481,-12.128000259399414 C8.340999603271484,-12.128000259399414 14.37399959564209,-6.669000148773193 14.37399959564209,0.004000000189989805 C14.37399959564209,3.3329999446868896 12.862000465393066,6.363999843597412 10.434000015258789,8.565999984741211 C8.005999565124512,10.76099967956543 4.656000137329102,12.128000259399414 0.9779999852180481,12.128000259399414 C0.9779999852180481,12.128000259399414 -14.37399959564209,12.128000259399414 -14.37399959564209,12.128000259399414"/></g><g opacity="1" transform="matrix(1,0,0,1,252.2270050048828,250.16000366210938)"><path stroke-linecap="round" stroke-linejoin="round" fill-opacity="0" stroke="rgb(75,179,253)" stroke-opacity="1" stroke-width="7" d=" M0,-22.628000259399414 C0,-22.628000259399414 0,22.628000259399414 0,22.628000259399414"/></g></g><g opacity="1" transform="matrix(1,0,0,1,0,0)"><g opacity="1" transform="matrix(1,0,0,1,213.91900634765625,250)"><path stroke-linecap="round" stroke-linejoin="round" fill-opacity="0" stroke="rgb(75,179,253)" stroke-opacity="1" stroke-width="7" d=" M19.579999923706055,22.788000106811523 C19.579999923706055,22.788000106811523 0.6499999761581421,-22.788000106811523 0.6499999761581421,-22.788000106811523 C0.6499999761581421,-22.788000106811523 -19.579999923706055,22.788000106811523 -19.579999923706055,22.788000106811523"/></g><g opacity="1" transform="matrix(1,0,0,1,214.07899475097656,261.5740051269531)"><path stroke-linecap="round" stroke-linejoin="round" fill-opacity="0" stroke="rgb(75,179,253)" stroke-opacity="1" stroke-width="7" d=" M14.76200008392334,0 C14.76200008392334,0 -14.76200008392334,0 -14.76200008392334,0"/></g></g><g opacity="1" transform="matrix(1,0,0,1,301.6600036621094,250.16000366210938)"><path stroke-linecap="round" stroke-linejoin="round" fill-opacity="0" stroke="rgb(75,179,253)" stroke-opacity="1" stroke-width="7" d=" M0,22.628999710083008 C0,22.628999710083008 0,-22.628999710083008 0,-22.628999710083008"/></g></g><g transform="matrix(0.9998041391372681,0.019790692254900932,-0.019790692254900932,0.9998041391372681,250,250)" opacity="1" style="display: block;"><g opacity="1" transform="matrix(1,0,0,1,0,0)"><path stroke-linecap="round" stroke-linejoin="round" fill-opacity="0" stroke="rgb(18,19,49)" stroke-opacity="1" stroke-width="7" d=" M127.1729965209961,-0.009999999776482582 C127.1729965209961,-0.009999999776482582 158.66099548339844,21.566999435424805 158.66099548339844,21.566999435424805 C156.06900024414062,40.97100067138672 149.968994140625,59.26900100708008 141.0679931640625,75.81400299072266 C141.0679931640625,75.81400299072266 102.87000274658203,74.74700164794922 102.87000274658203,74.74700164794922 C102.87000274658203,74.74700164794922 115.66000366210938,110.71399688720703 115.66000366210938,110.71399688720703 C102.50800323486328,124.47599792480469 86.91699981689453,135.87399291992188 69.59100341796875,144.24200439453125 C69.59100341796875,144.24200439453125 39.303001403808594,120.93099975585938 39.303001403808594,120.93099975585938 C39.303001403808594,120.93099975585938 28.496000289916992,157.58399963378906 28.496000289916992,157.58399963378906 C19.25200080871582,159.26100158691406 9.720999717712402,160.11900329589844 0,160.11900329589844 C-9.720999717712402,160.11900329589844 -19.25200080871582,159.26100158691406 -28.496000289916992,157.58399963378906 C-28.496000289916992,157.58399963378906 -39.303001403808594,120.93099975585938 -39.303001403808594,120.93099975585938 C-39.303001403808594,120.93099975585938 -69.59100341796875,144.24200439453125 -69.59100341796875,144.24200439453125 C-86.91699981689453,135.87399291992188 -102.50800323486328,124.47599792480469 -115.66000366210938,110.71399688720703 C-115.66000366210938,110.71399688720703 -102.87000274658203,74.74700164794922 -102.87000274658203,74.74700164794922 C-102.87000274658203,74.74700164794922 -141.0679931640625,75.81400299072266 -141.0679931640625,75.81400299072266 C-149.968994140625,59.26900100708008 -156.06900024414062,40.97100067138672 -158.66099548339844,21.566999435424805 C-158.66099548339844,21.566999435424805 -127.1729965209961,-0.009999999776482582 -127.1729965209961,-0.009999999776482582 C-127.1729965209961,-0.009999999776482582 -158.66099548339844,-21.586000442504883 -158.66099548339844,-21.586000442504883 C-156.06900024414062,-40.9900016784668 -149.98800659179688,-59.26900100708008 -141.08700561523438,-75.81400299072266 C-141.08700561523438,-75.81400299072266 -102.87000274658203,-74.74600219726562 -102.87000274658203,-74.74600219726562 C-102.87000274658203,-74.74600219726562 -115.67900085449219,-110.73300170898438 -115.67900085449219,-110.73300170898438 C-102.50800323486328,-124.47599792480469 -86.89700317382812,-135.87399291992188 -69.57099914550781,-144.26100158691406 C-69.57099914550781,-144.26100158691406 -39.303001403808594,-120.9489974975586 -39.303001403808594,-120.9489974975586 C-39.303001403808594,-120.9489974975586 -28.514999389648438,-157.58399963378906 -28.514999389648438,-157.58399963378906 C-19.270999908447266,-159.2429962158203 -9.739999771118164,-160.11900329589844 0,-160.11900329589844 C9.739999771118164,-160.11900329589844 19.270999908447266,-159.2429962158203 28.514999389648438,-157.58399963378906 C28.514999389648438,-157.58399963378906 39.303001403808594,-120.9489974975586 39.303001403808594,-120.9489974975586 C39.303001403808594,-120.9489974975586 69.57099914550781,-144.26100158691406 69.57099914550781,-144.26100158691406 C86.89700317382812,-135.87399291992188 102.50800323486328,-124.47599792480469 115.67900085449219,-110.73300170898438 C115.67900085449219,-110.73300170898438 102.87000274658203,-74.74600219726562 102.87000274658203,-74.74600219726562 C102.87000274658203,-74.74600219726562 141.08700561523438,-75.81400299072266 141.08700561523438,-75.81400299072266 C149.98800659179688,-59.26900100708008 156.06900024414062,-40.9900016784668 158.66099548339844,-21.586000442504883 C158.66099548339844,-21.586000442504883 127.1729965209961,-0.009999999776482582 127.1729965209961,-0.009999999776482582z"/></g></g><g transform="matrix(1,0,0,1,250,250)" opacity="1" style="display: block;"><g opacity="1" transform="matrix(1,0,0,1,0,0)"><path stroke-linecap="round" stroke-linejoin="round" fill-opacity="0" stroke="rgb(18,19,49)" stroke-opacity="1" stroke-width="7" d=" M-91.16200256347656,0 C-91.16200256347656,50.347999572753906 -50.347999572753906,91.16200256347656 0,91.16200256347656 C50.347999572753906,91.16200256347656 91.16200256347656,50.347999572753906 91.16200256347656,0 C91.16200256347656,-50.347999572753906 50.347999572753906,-91.16200256347656 0,-91.16200256347656 C-50.347999572753906,-91.16200256347656 -91.16200256347656,-50.347999572753906 -91.16200256347656,0z"/></g></g><g class="com" style="display: none;"><g><path/></g><g><path/></g><g><path/></g><g><path/></g><g><path/></g><g><path/></g><g><path/></g><g><path/></g><g><path/></g><g><path/></g><g><path/></g><g><path/></g></g></g></svg>